<?xml version="1.0" encoding="UTF-8" standalone="no"?>
<!DOCTYPE svg PUBLIC "-//W3C//DTD SVG 1.1//EN" "http://www.w3.org/Graphics/SVG/1.1/DTD/svg11.dtd">
<svg version="1.1" xmlns="http://www.w3.org/2000/svg" xmlns:xlink="http://www.w3.org/1999/xlink" preserveAspectRatio="xMidYMid meet" viewBox="0 0 640 640" width="640" height="640"><defs><path d="M0 137.5L149.77 137.5L149.77 181.55L0 181.55L0 137.5ZM0 55.69L149.77 55.69L149.77 99.74L0 99.74L0 55.69ZM0 218.68L0 262.73C155.19 262.73 241.4 262.73 258.64 262.73C286.96 262.73 353.04 263.36 377.58 303.01C377.58 300.55 377.58 280.92 377.58 278.47C365.62 239.45 330.38 218.68 268.71 218.68C232.88 218.68 143.31 218.68 0 218.68ZM0 300.49L0 344.54C155.19 344.54 241.4 344.54 258.64 344.54C321.57 344.54 361.22 347.06 377.58 355.87C377.58 353.92 377.58 338.31 377.58 336.36C365 305.53 312.13 300.49 269.34 300.49C233.43 300.49 143.65 300.49 0 300.49ZM0 508.16L0 464.11C155.19 464.11 241.4 464.11 258.64 464.11C286.96 464.11 353.04 463.48 377.58 423.83C377.58 426.29 377.58 445.92 377.58 448.38C365.62 487.39 330.38 508.16 268.71 508.16C232.88 508.16 143.31 508.16 0 508.16ZM0 426.35L0 382.3C155.19 382.3 241.4 382.3 258.64 382.3C321.57 382.3 361.22 379.78 377.58 370.97C377.58 372.92 377.58 388.53 377.58 390.48C365 421.32 312.13 426.35 269.34 426.35C233.43 426.35 143.65 426.35 0 426.35ZM640.63 584.31L640.63 557.25C525.47 557.25 461.49 557.25 448.69 557.25C431.7 557.25 391.43 556.62 376.95 533.33C376.95 534.84 376.95 546.93 376.95 548.44C383.87 571.72 405.27 584.31 443.03 584.31C469.38 584.31 535.24 584.31 640.63 584.31ZM640 534.59L640 507.53C525.22 507.53 461.45 507.53 448.69 507.53C410.3 507.53 386.39 506.27 376.95 500.61C376.95 501.81 376.95 511.37 376.95 512.57C384.5 531.45 416.6 534.59 442.4 534.59C468.75 534.59 534.61 534.59 640 534.59Z" id="c2bibuoyz"></path></defs><g><g><use xlink:href="#c2bibuoyz" opacity="1" fill="#122335" fill-opacity="1"></use><g><use xlink:href="#c2bibuoyz" opacity="1" fill-opacity="0" stroke="#000000" stroke-width="0" stroke-opacity="0"></use></g></g></g></svg>