<svg width="396.494" height="396.494" xmlns="http://www.w3.org/2000/svg">

 <g>
  <title>background</title>
  <rect fill="none" id="canvas_background" height="402" width="582" y="-1" x="-1"/>
 </g>
 <g>
  <title>Layer 1</title>
  <g id="svg_1">
   <g id="svg_2">
    <path id="svg_3" fill="#122335" class="active-path" d="m304.420013,330.901001l-43.218994,0c-1.559998,0 -2.834015,-1.27301 -2.834015,-2.834015l0,-10.519989c0,-1.55899 -1.274994,-2.833984 -2.834,-2.833984l-60.474991,0c-1.559998,0 -2.835007,1.274994 -2.835007,2.833984l0,10.519989c0,1.561005 -1.274994,2.834015 -2.834991,2.834015l-32.491013,0c-1.559998,0 -2.834991,1.274994 -2.834991,2.833984l0,12.170013c0,1.55899 1.274994,2.834015 2.834991,2.834015l147.520996,0c1.559021,0 2.834015,-1.275024 2.834015,-2.834015l0,-12.170013c0.001984,-1.556 -1.27301,-2.833984 -2.832001,-2.833984z"/>
    <g id="svg_4">
     <path id="svg_5" fill="#122335" class="active-path" d="m377.032013,46.368l-308.399994,0c-10.73,0 -19.459,8.73 -19.459,19.462002c0,0 0,37.109001 0,50.761002c0,6.710999 -0.498001,7.659996 4.004002,7.659996c2.390999,0 5.038998,0 7.719997,0c3.778,0 3.003002,-0.948997 3.003002,-7.784996c0,-13.621002 0,-50.636002 0,-50.636002c0,-2.565002 2.168003,-4.733002 4.731998,-4.733002l308.399994,0c2.562988,0 4.730988,2.167999 4.730988,4.733002l0,189.998993l-219.86998,0c0,0 -7.749008,-0.014008 -7.749008,10.005997c0,5.94101 0,17.822998 0,23.765991c0,10.006012 8,10.006012 8,10.006012l214.888,0c10.729004,0 19.460999,-8.729004 19.460999,-19.459015l0,-214.317978c0,-10.731003 -8.730011,-19.462002 -19.460999,-19.462002zm-154.19902,236.435986c-4.845001,0 -8.770996,-3.925995 -8.770996,-8.768005s3.925995,-8.769989 8.770996,-8.769989c4.839996,0 8.766998,3.928009 8.766998,8.769989s-3.926987,8.768005 -8.766998,8.768005z"/>
     <path id="svg_6" fill="#122335" class="active-path" d="m124.125,141.632996l-111.566,0c-6.927,0 -12.559,5.633011 -12.559,12.559998l0,183.372009c0,6.925995 5.632,12.560974 12.559,12.560974l111.566,0c6.923004,0 12.559006,-5.634979 12.559006,-12.560974l0,-183.372009c0,-6.926987 -5.636002,-12.559998 -12.559006,-12.559998zm-69.544998,12.809998l27.522995,0c1.313004,0 2.380005,1.063995 2.380005,2.380997c0,1.313995 -1.066002,2.378998 -2.380005,2.378998l-27.522995,0c-1.315002,0 -2.379002,-1.065002 -2.379002,-2.378998c0,-1.316986 1.063999,-2.380997 2.379002,-2.380997zm13.595001,186.860992c-3.590004,0 -6.500004,-2.910004 -6.500004,-6.5s2.91,-6.5 6.500004,-6.5s6.5,2.910004 6.5,6.5s-2.910004,6.5 -6.5,6.5zm57.717995,-19.103973c0,1.675995 -1.341995,3.046997 -2.979996,3.046997l-109.139002,0c-1.639,0 -2.98,-1.371002 -2.98,-3.046997l0,-152.375015c0,-1.675995 1.342,-3.04599 2.98,-3.04599l109.139002,0c1.639,0 2.979996,1.370987 2.979996,3.04599l0,152.375015z"/>
    </g>
   </g>
  </g>
 </g>
</svg>